<svg xmlns="http://www.w3.org/2000/svg" width="32" height="32" viewBox="0 0 32 32" fill="none">
  <path d="M19.6667 19.6667C18.1939 19.6667 17 20.8605 17 22.3333C17 23.8061 18.1939 25 19.6667 25C21.1395 25 22.3333 23.8061 22.3333 22.3333C22.3333 20.8605 21.1395 19.6667 19.6667 19.6667ZM19.6667 19.6667H9.39193C8.77717 19.6667 8.46924 19.6667 8.21615 19.5573C7.99288 19.4608 7.79917 19.3055 7.65805 19.1073C7.49987 18.8853 7.43625 18.5884 7.31032 18.0007L4.02864 2.6862C3.89979 2.08484 3.83449 1.78451 3.67448 1.55989C3.53336 1.3618 3.33969 1.20588 3.11643 1.1094C2.86328 1 2.55705 1 1.94204 1H1M5 5H22.1643C23.1267 5 23.6073 5 23.9304 5.20048C24.2133 5.37608 24.4204 5.65149 24.5107 5.972C24.6139 6.33791 24.4813 6.79995 24.2147 7.72461L22.3685 14.1247C22.2091 14.6775 22.1292 14.9533 21.9675 15.1585C21.8247 15.3396 21.6363 15.4813 21.4227 15.5684C21.1815 15.6667 20.8948 15.6667 20.3228 15.6667H7.30729M7.66667 25C6.19391 25 5 23.8061 5 22.3333C5 20.8605 6.19391 19.6667 7.66667 19.6667C9.13943 19.6667 10.3333 20.8605 10.3333 22.3333C10.3333 23.8061 9.13943 25 7.66667 25Z" stroke="black" stroke-width="1.5" stroke-linecap="round" stroke-linejoin="round"/>
</svg>