<svg xmlns="http://www.w3.org/2000/svg" version="1.1" viewBox="0.940000057220459 1.6500000953674316 143.21597290039062 167.65757751464844" >
<path fill="#d69203" d="&#10;  M 142.50 7.90&#10;  Q 107.70 66.01 70.41 127.96&#10;  A 1.28 1.26 8.8 0 1 69.59 128.55&#10;  C 68.54 128.78 67.08 128.41 67.07 127.11&#10;  Q 66.98 93.41 67.08 61.87&#10;  Q 67.10 56.74 69.87 52.11&#10;  Q 85.03 26.73 98.15 4.67&#10;  Q 99.85 1.81 103.43 1.79&#10;  Q 121.58 1.68 140.32 1.65&#10;  Q 141.55 1.65 142.71 1.92&#10;  A 1.75 1.75 0.0 0 1 144.04 3.99&#10;  Q 143.61 6.05 142.50 7.90&#10;  Z"/>
<path fill="#d69203" d="&#10;  M 26.47 164.76&#10;  Q 6.91 154.87 1.59 134.27&#10;  Q 0.94 131.73 0.94 128.66&#10;  Q 1.05 65.87 0.95 4.51&#10;  A 2.56 2.56 0.0 0 1 3.58 1.95&#10;  Q 12.18 2.21 19.76 5.81&#10;  Q 39.89 15.39 45.67 37.27&#10;  Q 46.09 38.87 46.08 42.11&#10;  Q 45.89 100.75 46.02 165.27&#10;  C 46.02 167.04 45.38 169.20 43.16 169.02&#10;  Q 33.27 168.20 26.47 164.76&#10;  Z"/>
<path fill="#311807" d="&#10;  M 84.07 169.02&#10;  C 81.32 168.90 81.82 165.11 82.71 163.64&#10;  Q 96.27 141.37 110.34 118.18&#10;  Q 111.04 117.02 111.89 116.02&#10;  A 1.72 1.72 0.0 0 1 114.23 115.76&#10;  Q 115.92 117.03 117.02 118.91&#10;  Q 130.20 141.21 142.09 161.70&#10;  Q 143.46 164.05 144.09 166.50&#10;  A 2.04 2.04 0.0 0 1 142.36 169.04&#10;  Q 141.05 169.20 139.89 169.20&#10;  Q 113.29 169.41 87.71 169.21&#10;  C 86.49 169.20 85.28 169.08 84.07 169.02&#10;  Z"/>
</svg>