<svg xmlns="http://www.w3.org/2000/svg" version="1.1" viewBox="1.6398000717163086 1.9200000762939453 338.13720703125 163.30516052246094" width="60" height="30">
<rect fill="#311807" x="151.83" y="1.92" width="13.06" height="12.38" rx="1.34"/>
<path fill="#d69203" d="&#10;  M 65.84 52.38&#10;  C 74.38 37.91 83.23 23.16 91.85 8.83&#10;  C 94.11 5.07 97.42 5.45 102.28 5.44&#10;  Q 116.83 5.41 131.00 5.40&#10;  Q 132.29 5.40 133.68 5.74&#10;  A 1.62 1.62 0.0 0 1 134.80 7.93&#10;  Q 134.05 9.77 133.07 11.42&#10;  Q 106.26 56.39 80.88 98.87&#10;  Q 74.55 109.48 66.05 123.13&#10;  A 1.44 1.44 0.0 0 1 64.92 123.81&#10;  Q 63.42 123.92 63.42 122.57&#10;  Q 63.31 91.76 63.43 61.61&#10;  Q 63.45 56.42 65.84 52.38&#10;  Z"/>
<path fill="#d69203" d="&#10;  M 5.04 136.77&#10;  Q 1.83 130.27 1.82 123.50&#10;  Q 1.74 66.89 1.64 12.75&#10;  Q 1.63 9.79 2.12 7.16&#10;  A 1.73 1.72 7.4 0 1 3.95 5.76&#10;  Q 22.59 7.29 34.43 21.29&#10;  C 38.95 26.63 43.40 35.34 43.40 42.79&#10;  Q 43.38 99.20 43.59 154.23&#10;  Q 43.60 156.64 43.14 159.92&#10;  A 1.50 1.50 0.0 0 1 41.76 161.22&#10;  Q 39.81 161.37 37.50 160.96&#10;  Q 15.02 156.94 5.04 136.77&#10;  Z"/>
<rect fill="#311807" x="151.84" y="21.53" width="13.06" height="47.84" rx="1.22"/>
<path fill="#311807" d="&#10;  M 187.56 34.71&#10;  A 1.06 1.06 0.0 0 0 186.48 35.77&#10;  L 186.38 67.76&#10;  Q 186.37 69.40 184.74 69.40&#10;  L 174.52 69.39&#10;  Q 173.15 69.38 173.15 68.01&#10;  Q 173.09 48.41 173.29 28.06&#10;  C 173.36 21.45 179.15 21.49 183.93 21.54&#10;  Q 194.28 21.64 205.63 21.54&#10;  C 210.60 21.49 214.29 23.51 218.23 26.05&#10;  C 223.81 29.65 226.10 37.39 226.18 43.72&#10;  Q 226.32 55.00 226.13 67.83&#10;  A 1.59 1.58 -89.5 0 1 224.54 69.40&#10;  L 214.32 69.33&#10;  A 1.10 1.10 0.0 0 1 213.22 68.24&#10;  Q 213.14 57.64 213.17 46.66&#10;  C 213.18 44.58 212.83 42.39 212.41 40.35&#10;  Q 211.29 35.01 204.60 34.95&#10;  Q 196.30 34.87 187.56 34.71&#10;  Z"/>
<path fill="#311807" d="&#10;  M 270.24 21.69&#10;  C 276.42 21.77 282.18 25.89 284.19 31.28&#10;  Q 285.83 35.70 285.68 42.55&#10;  Q 285.40 55.09 285.67 67.48&#10;  C 285.87 76.76 284.42 84.22 275.11 88.11&#10;  Q 271.31 89.70 264.38 89.49&#10;  Q 256.28 89.25 249.37 89.42&#10;  A 1.09 1.09 0.0 0 1 248.26 88.34&#10;  L 248.19 77.04&#10;  A 1.03 1.03 0.0 0 1 249.21 76.00&#10;  L 269.79 75.91&#10;  A 2.70 2.70 0.0 0 0 272.48 73.21&#10;  L 272.42 38.01&#10;  Q 272.41 34.85 269.26 34.85&#10;  L 249.44 34.84&#10;  Q 245.83 34.84 245.82 38.44&#10;  L 245.79 52.72&#10;  Q 245.78 56.41 249.47 56.41&#10;  L 268.25 56.42&#10;  A 1.84 1.83 0.0 0 1 270.09 58.25&#10;  L 270.11 67.74&#10;  A 1.70 1.69 -89.7 0 1 268.40 69.44&#10;  Q 259.13 69.38 249.51 69.35&#10;  C 239.84 69.33 232.91 62.88 232.84 52.98&#10;  Q 232.79 46.00 232.72 38.89&#10;  Q 232.61 28.44 241.89 22.86&#10;  Q 243.79 21.71 245.98 21.69&#10;  Q 258.39 21.53 270.24 21.69&#10;  Z"/>
<path fill="#311807" d="&#10;  M 305.09 35.20&#10;  L 305.08 35.59&#10;  Q 305.05 36.42 305.88 36.40&#10;  Q 314.53 36.25 322.71 36.31&#10;  Q 331.24 36.38 336.02 42.21&#10;  C 341.11 48.42 341.01 57.93 335.83 64.06&#10;  Q 331.39 69.31 322.74 69.39&#10;  Q 308.27 69.52 293.41 69.33&#10;  A 0.92 0.92 0.0 0 1 292.50 68.40&#10;  L 292.58 57.55&#10;  A 1.12 1.12 0.0 0 1 293.70 56.44&#10;  L 323.46 56.40&#10;  A 3.08 3.08 0.0 0 0 326.49 52.79&#10;  L 326.39 52.17&#10;  Q 325.96 49.71 323.46 49.68&#10;  Q 317.44 49.61 310.81 49.75&#10;  C 301.96 49.93 293.95 47.92 292.33 38.18&#10;  C 291.21 31.48 294.15 25.78 300.01 22.74&#10;  Q 302.47 21.45 307.48 21.55&#10;  Q 319.76 21.78 333.09 21.52&#10;  Q 334.15 21.50 334.22 22.55&#10;  Q 334.59 28.09 334.20 33.55&#10;  A 1.17 1.16 -88.1 0 1 333.05 34.63&#10;  L 305.52 34.78&#10;  A 0.44 0.43 -88.6 0 0 305.09 35.20&#10;  Z"/>
<path fill="#311807" d="&#10;  M 165.41 150.33&#10;  C 166.71 152.15 170.51 151.60 172.47 151.49&#10;  A 1.62 1.62 0.0 0 1 174.18 153.11&#10;  L 174.17 163.47&#10;  Q 174.16 164.87 172.78 165.03&#10;  C 160.87 166.36 151.69 159.99 151.69 147.39&#10;  Q 151.69 124.72 151.62 102.54&#10;  Q 151.62 100.49 151.89 98.29&#10;  A 0.73 0.72 0.4 0 1 152.54 97.66&#10;  Q 158.39 97.07 163.60 97.59&#10;  A 1.43 1.43 0.0 0 1 164.89 99.01&#10;  L 164.89 148.72&#10;  A 2.75 2.74 -63.0 0 0 165.41 150.33&#10;  Z"/>
<path fill="#311807" d="&#10;  M 79.00 161.24&#10;  Q 77.24 161.22 77.10 159.46&#10;  Q 76.95 157.49 77.96 155.84&#10;  Q 91.42 133.76 104.82 111.52&#10;  A 1.26 1.25 35.6 0 1 106.71 111.21&#10;  Q 108.59 112.82 109.98 115.16&#10;  Q 121.89 135.36 133.39 155.13&#10;  C 134.11 156.37 134.93 157.95 134.71 159.38&#10;  Q 134.41 161.37 131.75 161.39&#10;  Q 104.65 161.59 79.00 161.24&#10;  Z"/>
<path fill="#311807" d="&#10;  M 192.63 145.08&#10;  C 187.70 145.11 187.75 152.48 192.57 152.33&#10;  Q 200.71 152.08 211.47 152.30&#10;  Q 215.88 152.38 215.99 147.92&#10;  Q 216.17 141.07 216.03 133.81&#10;  Q 215.95 129.76 211.89 129.63&#10;  Q 199.74 129.24 188.62 129.68&#10;  A 1.51 1.51 0.0 0 1 187.05 128.16&#10;  L 187.09 118.50&#10;  A 1.49 1.49 0.0 0 1 188.55 117.02&#10;  Q 196.23 116.83 204.13 116.83&#10;  Q 215.28 116.82 219.23 118.63&#10;  Q 228.18 122.73 228.57 133.94&#10;  Q 228.79 140.20 228.69 146.46&#10;  C 228.53 157.01 222.83 165.10 211.46 165.10&#10;  Q 204.89 165.09 197.32 165.20&#10;  C 188.11 165.33 180.43 163.46 177.32 154.57&#10;  C 174.51 146.53 177.81 137.69 185.28 133.95&#10;  Q 188.07 132.56 192.30 132.49&#10;  Q 202.40 132.34 211.89 132.47&#10;  Q 213.26 132.49 213.25 133.86&#10;  L 213.16 144.22&#10;  Q 213.15 145.18 212.19 145.17&#10;  Q 201.70 145.03 192.63 145.08&#10;  Z"/>
<path fill="#311807" d="&#10;  M 247.45 131.12&#10;  L 247.44 131.50&#10;  A 0.56 0.56 0.0 0 0 248.00 132.07&#10;  Q 256.63 132.09 265.49 132.14&#10;  C 275.65 132.20 282.16 138.94 282.00 148.90&#10;  C 281.89 155.66 278.07 161.69 271.70 163.87&#10;  Q 267.68 165.25 260.85 165.18&#10;  Q 248.77 165.05 236.45 165.07&#10;  Q 234.57 165.08 234.59 163.20&#10;  L 234.71 153.25&#10;  A 1.68 1.68 0.0 0 1 236.38 151.60&#10;  L 266.10 151.54&#10;  Q 268.74 151.53 268.82 148.90&#10;  L 268.84 148.41&#10;  Q 268.94 145.06 265.60 145.08&#10;  Q 255.71 145.12 247.31 144.92&#10;  C 236.13 144.65 230.37 130.94 237.29 122.30&#10;  Q 241.30 117.31 248.37 117.12&#10;  Q 262.45 116.74 275.48 116.93&#10;  A 1.02 1.02 0.0 0 1 276.48 117.88&#10;  Q 276.87 123.82 276.39 129.42&#10;  A 0.91 0.90 -87.6 0 1 275.49 130.25&#10;  L 248.49 130.11&#10;  Q 247.48 130.10 247.45 131.12&#10;  Z"/>
<path fill="#311807" d="&#10;  M 299.28 130.81&#10;  L 299.33 131.16&#10;  A 1.03 1.03 0.0 0 0 300.35 132.04&#10;  Q 309.63 132.09 318.22 132.20&#10;  C 336.82 132.43 339.63 159.08 322.87 164.14&#10;  Q 319.02 165.30 313.13 165.22&#10;  Q 300.08 165.06 288.13 165.08&#10;  A 1.49 1.49 0.0 0 1 286.63 163.69&#10;  Q 286.27 158.50 286.66 153.49&#10;  Q 286.80 151.58 288.72 151.57&#10;  L 317.78 151.57&#10;  Q 321.13 151.57 320.90 148.22&#10;  L 320.88 147.95&#10;  A 3.08 3.07 -1.9 0 0 317.81 145.08&#10;  Q 309.58 145.07 301.63 145.09&#10;  Q 289.72 145.11 286.64 134.73&#10;  Q 285.15 129.72 287.47 125.22&#10;  Q 291.62 117.20 300.80 117.07&#10;  Q 315.28 116.88 327.23 116.92&#10;  Q 328.67 116.93 328.66 118.37&#10;  L 328.54 129.13&#10;  A 1.26 1.25 -88.9 0 1 327.26 130.37&#10;  Q 312.74 130.07 299.73 130.28&#10;  A 0.46 0.46 0.0 0 0 299.28 130.81&#10;  Z"/>
</svg>