<svg xmlns="http://www.w3.org/2000/svg" version="1.1" viewBox="2.171818256378174 1.0799999237060547 681.3746948242188 155.7700653076172" width="120" height="30">
<path fill="#d69203" d="&#10;  M 70.06 41.32&#10;  C 77.18 29.38 84.64 16.92 91.95 4.72&#10;  C 93.74 1.74 96.72 1.16 100.34 1.13&#10;  Q 114.00 1.03 126.56 1.13&#10;  C 129.50 1.15 132.08 0.93 134.79 1.90&#10;  A 0.84 0.83 -74.7 0 1 135.33 2.85&#10;  Q 134.96 4.65 134.00 6.25&#10;  C 110.77 44.98 88.95 81.28 67.82 116.82&#10;  Q 67.00 118.20 65.76 118.77&#10;  A 1.46 1.46 0.0 0 1 63.69 117.45&#10;  Q 63.65 87.61 63.70 57.68&#10;  C 63.71 51.52 66.10 47.97 70.06 41.32&#10;  Z"/>
<path fill="#d69203" d="&#10;  M 23.96 151.43&#10;  C 11.48 144.43 2.27 132.49 2.24 118.41&#10;  Q 2.09 57.48 2.27 3.33&#10;  A 1.80 1.80 0.0 0 1 4.21 1.54&#10;  Q 31.71 3.62 41.89 29.12&#10;  Q 43.92 34.19 43.92 39.50&#10;  Q 43.93 96.26 43.87 153.35&#10;  C 43.86 155.35 42.82 157.15 40.50 156.74&#10;  Q 30.18 154.93 23.96 151.43&#10;  Z"/>
<path fill="#333333" d="&#10;  M 484.57 95.24&#10;  C 484.57 102.57 488.68 103.52 494.51 104.87&#10;  A 0.75 0.75 0.0 0 1 495.08 105.74&#10;  L 492.99 117.23&#10;  A 1.07 1.07 0.0 0 1 491.91 118.11&#10;  Q 486.54 118.03 480.97 116.56&#10;  C 470.82 113.86 468.23 106.10 468.26 96.56&#10;  Q 468.36 61.40 468.30 20.55&#10;  A 0.87 0.86 85.8 0 1 469.03 19.69&#10;  L 484.05 17.28&#10;  A 0.45 0.45 0.0 0 1 484.57 17.73&#10;  Q 484.54 56.02 484.57 95.24&#10;  Z"/>
<ellipse fill="#333333" cx="0.00" cy="0.00" transform="translate(140.70,30.28) rotate(-2.3)" rx="10.16" ry="9.82"/>
<path fill="#333333" d="&#10;  M 400.63 63.40&#10;  A 0.35 0.34 -22.7 0 0 401.22 63.64&#10;  Q 418.64 46.30 434.80 28.43&#10;  A 1.63 1.61 20.7 0 1 435.97 27.91&#10;  L 455.37 27.88&#10;  A 0.27 0.27 0.0 0 1 455.57 28.33&#10;  Q 436.44 49.46 416.39 68.84&#10;  Q 416.03 69.19 416.42 69.50&#10;  C 433.08 82.70 446.54 98.70 458.25 116.42&#10;  A 0.30 0.29 -16.8 0 1 458.00 116.88&#10;  L 439.31 116.86&#10;  A 2.16 2.15 -16.9 0 1 437.52 115.91&#10;  Q 422.80 94.27 401.81 77.74&#10;  A 0.71 0.70 19.1 0 0 400.66 78.29&#10;  L 400.73 116.19&#10;  A 0.68 0.67 -0.4 0 1 400.06 116.86&#10;  L 384.50 116.87&#10;  A 0.87 0.87 0.0 0 1 383.62 116.00&#10;  L 383.63 28.37&#10;  A 0.50 0.49 -89.4 0 1 384.13 27.87&#10;  L 400.20 27.93&#10;  A 0.52 0.52 0.0 0 1 400.72 28.45&#10;  L 400.63 63.40&#10;  Z"/>
<path fill="#333333" d="&#10;  M 351.34 101.79&#10;  C 353.58 97.09 350.04 93.68 345.90 91.88&#10;  Q 340.33 89.44 334.58 87.31&#10;  C 323.59 83.22 316.60 75.60 319.58 63.00&#10;  C 322.10 52.33 333.58 48.09 343.68 47.93&#10;  Q 354.08 47.76 364.84 51.00&#10;  Q 365.34 51.15 365.22 51.66&#10;  L 362.48 63.15&#10;  A 0.90 0.90 0.0 0 1 361.32 63.80&#10;  C 354.45 61.49 347.79 60.18 340.70 61.68&#10;  Q 334.55 62.98 335.34 68.50&#10;  C 335.75 71.41 338.55 73.23 340.99 74.20&#10;  Q 347.72 76.89 354.73 79.77&#10;  C 360.98 82.34 366.71 86.86 367.92 93.48&#10;  C 372.06 116.19 350.18 119.35 333.87 118.33&#10;  Q 325.91 117.83 317.71 114.52&#10;  A 0.36 0.35 16.6 0 1 317.49 114.12&#10;  L 320.11 101.94&#10;  A 0.76 0.76 0.0 0 1 321.08 101.38&#10;  Q 324.07 102.32 326.95 103.30&#10;  C 332.86 105.30 339.20 105.51 345.54 104.81&#10;  C 347.63 104.57 350.36 103.84 351.34 101.79&#10;  Z"/>
<path fill="#333333" d="&#10;  M 543.05 75.51&#10;  C 542.88 66.97 539.77 62.11 530.72 61.69&#10;  Q 521.30 61.25 511.97 63.84&#10;  Q 511.16 64.06 511.04 63.24&#10;  L 509.30 51.65&#10;  A 0.79 0.79 0.0 0 1 509.88 50.77&#10;  Q 526.33 46.41 539.40 48.76&#10;  C 554.26 51.43 558.80 61.76 558.72 75.25&#10;  Q 558.62 94.36 558.75 113.98&#10;  Q 558.76 115.44 557.31 115.65&#10;  C 546.70 117.19 536.90 118.71 526.27 118.03&#10;  Q 519.02 117.57 513.18 114.82&#10;  C 503.70 110.36 500.93 99.44 503.64 89.90&#10;  C 505.30 84.09 510.21 79.95 515.79 77.92&#10;  C 524.41 74.80 533.03 74.73 541.86 76.51&#10;  A 1.00 1.00 0.0 0 0 543.05 75.51&#10;  Z&#10;  M 542.89 102.97&#10;  L 542.91 89.59&#10;  A 2.37 2.37 0.0 0 0 540.55 87.22&#10;  L 529.83 87.20&#10;  A 10.65 8.07 0.1 0 0 519.16 95.25&#10;  L 519.16 97.23&#10;  A 10.65 8.07 0.1 0 0 529.79 105.32&#10;  L 540.51 105.34&#10;  A 2.37 2.37 0.0 0 0 542.89 102.97&#10;  Z"/>
<path fill="#333333" d="&#10;  M 590.78 64.78&#10;  C 588.21 69.48 592.88 73.19 597.09 74.72&#10;  Q 605.79 77.88 612.23 81.00&#10;  C 619.28 84.42 623.41 90.09 623.47 97.95&#10;  C 623.56 111.19 614.02 116.52 602.54 117.99&#10;  Q 586.34 120.07 572.77 114.57&#10;  A 0.63 0.63 0.0 0 1 572.40 113.81&#10;  Q 574.17 107.69 575.00 101.79&#10;  A 0.54 0.53 11.7 0 1 575.68 101.35&#10;  Q 578.76 102.24 581.72 103.23&#10;  C 587.65 105.24 593.89 105.45 600.32 104.86&#10;  Q 602.84 104.63 604.92 103.40&#10;  C 608.01 101.57 607.48 96.50 605.01 94.47&#10;  C 601.13 91.27 595.64 89.58 590.91 87.85&#10;  C 580.95 84.22 573.40 78.73 574.03 66.80&#10;  C 574.70 53.97 586.16 48.39 597.84 47.99&#10;  Q 609.04 47.60 619.63 50.97&#10;  A 0.78 0.78 0.0 0 1 620.15 51.89&#10;  L 617.55 62.79&#10;  Q 617.22 64.15 615.90 63.69&#10;  Q 606.92 60.57 599.28 61.12&#10;  C 596.43 61.32 592.26 62.09 590.78 64.78&#10;  Z"/>
<path fill="#333333" d="&#10;  M 680.36 52.13&#10;  Q 678.53 57.72 677.70 63.38&#10;  A 0.60 0.59 10.9 0 1 676.96 63.87&#10;  Q 674.11 63.14 671.23 62.32&#10;  C 666.66 61.02 649.45 58.75 650.28 67.71&#10;  Q 650.65 71.73 654.71 73.56&#10;  C 668.42 79.75 686.91 82.51 683.02 103.21&#10;  C 681.54 111.08 674.40 115.62 666.94 117.18&#10;  Q 648.98 120.92 632.91 114.61&#10;  Q 632.40 114.41 632.55 113.88&#10;  Q 634.24 107.72 635.01 102.03&#10;  A 0.85 0.84 13.8 0 1 636.14 101.35&#10;  C 645.09 104.60 653.17 106.30 662.71 104.41&#10;  C 667.62 103.45 668.55 97.81 665.30 94.75&#10;  Q 662.79 92.39 659.09 90.99&#10;  C 647.06 86.43 632.80 82.58 634.09 66.10&#10;  C 634.96 55.03 644.78 49.22 654.82 48.24&#10;  Q 667.09 47.05 679.78 51.00&#10;  Q 680.64 51.27 680.36 52.13&#10;  Z"/>
<path fill="#333333" d="&#10;  M 185.96 62.71&#10;  A 0.81 0.81 0.0 0 0 185.26 63.52&#10;  L 185.31 115.77&#10;  A 1.09 1.08 90.0 0 1 184.23 116.86&#10;  L 169.76 116.85&#10;  A 1.11 1.11 0.0 0 1 168.65 115.64&#10;  Q 168.75 114.36 168.76 113.19&#10;  Q 168.84 83.16 168.77 52.44&#10;  A 0.93 0.92 83.3 0 1 169.47 51.54&#10;  Q 187.90 47.08 202.70 48.57&#10;  C 219.15 50.22 226.51 61.01 226.61 76.38&#10;  Q 226.73 97.19 226.71 116.15&#10;  Q 226.71 116.83 226.04 116.83&#10;  L 211.25 116.86&#10;  Q 210.30 116.86 210.31 115.92&#10;  Q 210.40 97.81 210.34 81.62&#10;  C 210.31 73.34 209.69 63.43 199.57 62.25&#10;  Q 193.80 61.58 185.96 62.71&#10;  Z"/>
<path fill="#333333" d="&#10;  M 286.88 111.17&#10;  A 0.71 0.71 0.0 0 0 285.90 110.45&#10;  C 276.45 114.54 264.24 114.23 255.26 109.15&#10;  C 243.75 102.64 240.66 87.96 242.30 75.74&#10;  C 243.83 64.33 250.59 54.93 261.20 50.82&#10;  C 273.43 46.09 289.20 48.26 302.18 51.78&#10;  Q 303.09 52.03 303.09 52.98&#10;  Q 303.06 76.38 303.06 109.04&#10;  Q 303.06 117.67 300.50 124.66&#10;  C 297.05 134.10 287.24 138.80 277.73 140.13&#10;  Q 261.71 142.37 245.84 137.05&#10;  Q 245.25 136.86 245.41 136.26&#10;  Q 247.05 130.30 248.02 124.13&#10;  A 0.73 0.72 -75.6 0 1 248.97 123.56&#10;  C 258.47 126.96 282.65 132.00 285.92 117.22&#10;  Q 286.57 114.29 286.88 111.17&#10;  Z&#10;  M 283.92 98.17&#10;  Q 285.33 97.65 286.28 96.69&#10;  Q 286.55 96.41 286.55 96.02&#10;  L 286.54 63.50&#10;  Q 286.54 62.45 285.50 62.32&#10;  C 279.97 61.64 273.58 60.81 268.42 63.13&#10;  C 258.71 67.49 257.09 80.88 259.84 89.72&#10;  C 263.31 100.89 274.37 101.65 283.92 98.17&#10;  Z"/>
<rect fill="#333333" x="132.66" y="49.41" width="16.36" height="67.40" rx="0.74"/>
<path fill="#333333" d="&#10;  M 77.62 152.61&#10;  L 104.24 108.43&#10;  A 2.67 2.67 0.0 0 1 108.82 108.45&#10;  L 135.13 152.81&#10;  A 2.67 2.67 0.0 0 1 132.82 156.85&#10;  L 79.90 156.66&#10;  A 2.67 2.67 0.0 0 1 77.62 152.61&#10;  Z"/>
</svg>