<svg xmlns="http://www.w3.org/2000/svg" version="1.1" viewBox="1.0499999523162842 0.9750000238418579 520.724365234375 167.15499877929688" width="100" height="64">
<path fill="#d69203" d="&#10;  M 70.45 126.91&#10;  A 1.73 1.72 -62.0 0 1 68.25 127.59&#10;  Q 67.21 127.11 67.20 125.75&#10;  Q 67.14 92.59 67.23 61.36&#10;  C 67.24 57.23 68.80 52.90 70.90 49.38&#10;  Q 83.69 27.94 97.76 4.59&#10;  Q 99.93 1.00 103.73 0.99&#10;  Q 122.17 0.96 141.14 0.99&#10;  Q 142.38 0.99 143.49 1.54&#10;  Q 143.95 1.76 143.97 2.27&#10;  Q 144.05 3.81 143.20 5.28&#10;  Q 140.34 10.27 137.13 15.65&#10;  Q 103.21 72.65 70.45 126.91&#10;  Z"/>
<path fill="#d69203" d="&#10;  M 42.96 167.99&#10;  C 26.88 166.92 13.42 158.20 5.64 143.95&#10;  Q 2.13 137.53 1.26 130.39&#10;  Q 1.06 128.83 1.06 116.60&#10;  Q 1.05 60.18 1.05 3.75&#10;  C 1.05 1.82 3.47 1.17 5.07 1.36&#10;  Q 29.74 4.42 41.34 25.62&#10;  Q 45.90 33.95 45.88 44.25&#10;  Q 45.73 105.07 45.83 160.75&#10;  C 45.83 162.88 46.68 168.24 42.96 167.99&#10;  Z"/>
<path fill="#311807" d="&#10;  M 382.53 90.75&#10;  C 382.54 94.18 386.05 94.28 388.50 94.09&#10;  Q 390.19 93.96 390.19 95.66&#10;  L 390.19 101.84&#10;  Q 390.19 103.31 388.72 103.26&#10;  C 386.50 103.18 383.91 103.51 381.97 102.76&#10;  Q 373.43 99.42 373.42 90.54&#10;  Q 373.40 69.57 373.35 50.57&#10;  Q 373.35 49.71 374.21 49.70&#10;  L 381.70 49.62&#10;  Q 382.50 49.62 382.50 50.42&#10;  Q 382.48 71.20 382.53 90.75&#10;  Z"/>
<rect fill="#311807" x="-4.47" y="-4.14" transform="translate(160.61,53.87) rotate(-0.3)" width="8.94" height="8.28" rx="0.48"/>
<rect fill="#311807" x="316.56" y="53.08" width="9.14" height="50.14" rx="0.75"/>
<path fill="#311807" d="&#10;  M 343.72 77.88&#10;  A 0.59 0.58 -45.7 0 0 343.72 78.72&#10;  L 368.36 102.65&#10;  Q 369.11 103.39 368.06 103.38&#10;  L 356.69 103.30&#10;  Q 356.08 103.30 355.65 102.87&#10;  Q 345.63 92.97 336.87 84.11&#10;  C 335.25 82.48 332.81 82.77 330.74 83.00&#10;  Q 329.34 83.15 329.34 81.75&#10;  L 329.33 75.05&#10;  Q 329.33 73.68 330.70 73.70&#10;  L 334.45 73.75&#10;  A 2.67 2.63 -66.7 0 0 336.37 72.97&#10;  L 355.03 54.16&#10;  Q 355.93 53.25 357.21 53.24&#10;  L 367.93 53.14&#10;  Q 369.01 53.13 368.24 53.89&#10;  L 343.72 77.88&#10;  Z"/>
<rect fill="#311807" x="156.17" y="65.73" width="9.02" height="37.50" rx="0.35"/>
<path fill="#311807" d="&#10;  M 182.93 75.54&#10;  L 182.91 103.04&#10;  Q 182.91 103.24 182.71 103.24&#10;  L 174.08 103.22&#10;  Q 173.81 103.22 173.82 102.96&#10;  Q 173.99 88.45 173.81 71.06&#10;  C 173.79 68.40 175.01 65.80 178.06 65.78&#10;  Q 187.85 65.69 198.40 65.71&#10;  Q 203.38 65.72 206.74 67.52&#10;  C 214.15 71.49 215.84 77.31 215.69 85.45&#10;  Q 215.53 93.94 215.63 102.34&#10;  Q 215.64 103.17 214.80 103.18&#10;  L 207.19 103.24&#10;  Q 206.48 103.25 206.48 102.53&#10;  Q 206.57 92.04 206.46 82.30&#10;  C 206.40 76.38 202.13 74.75 196.92 74.89&#10;  Q 189.92 75.08 183.58 74.90&#10;  A 0.64 0.64 0.0 0 0 182.93 75.54&#10;  Z"/>
<path fill="#311807" d="&#10;  M 234.69 74.96&#10;  A 2.85 2.84 -0.2 0 0 231.85 77.81&#10;  L 231.91 91.40&#10;  A 2.74 2.74 0.0 0 0 234.65 94.13&#10;  L 250.73 94.08&#10;  Q 251.89 94.08 251.88 95.23&#10;  L 251.85 102.19&#10;  Q 251.84 103.27 250.76 103.24&#10;  Q 244.43 103.08 238.36 103.28&#10;  C 227.07 103.66 222.58 98.44 222.60 87.46&#10;  C 222.60 82.02 221.99 76.34 224.70 71.40&#10;  Q 227.62 66.08 234.68 65.84&#10;  Q 242.60 65.57 251.20 65.76&#10;  Q 260.22 65.97 263.30 72.84&#10;  Q 264.87 76.34 264.61 84.11&#10;  Q 264.34 92.54 264.60 101.91&#10;  Q 264.83 109.80 263.14 113.03&#10;  Q 259.88 119.25 251.88 119.73&#10;  Q 244.08 120.19 236.29 119.83&#10;  Q 235.37 119.79 235.38 118.87&#10;  L 235.41 111.37&#10;  Q 235.41 110.46 236.32 110.46&#10;  L 252.73 110.55&#10;  A 2.37 2.36 -84.8 0 0 255.07 108.60&#10;  Q 255.51 106.08 255.48 102.98&#10;  Q 255.36 90.31 255.35 78.29&#10;  Q 255.35 74.94 251.99 74.94&#10;  L 234.69 74.96&#10;  Z"/>
<path fill="#311807" d="&#10;  M 280.61 76.38&#10;  L 280.67 76.81&#10;  Q 280.83 77.92 281.94 77.95&#10;  Q 288.02 78.09 294.16 77.92&#10;  C 301.15 77.73 306.97 80.14 308.70 87.31&#10;  C 310.19 93.48 307.68 100.20 301.52 102.31&#10;  Q 298.41 103.37 294.89 103.35&#10;  Q 283.53 103.25 272.47 103.20&#10;  Q 271.98 103.20 271.98 102.71&#10;  L 271.98 94.71&#10;  Q 271.98 94.11 272.57 94.11&#10;  L 296.48 94.15&#10;  Q 298.96 94.15 299.87 91.85&#10;  Q 300.11 91.24 300.09 90.56&#10;  Q 300.00 87.20 296.63 87.07&#10;  Q 290.26 86.85 284.06 87.03&#10;  Q 279.91 87.15 277.10 85.82&#10;  C 272.71 83.72 270.43 77.91 271.88 73.32&#10;  Q 274.23 65.85 282.57 65.77&#10;  Q 293.28 65.67 303.69 65.73&#10;  Q 304.69 65.74 304.69 66.74&#10;  L 304.71 73.79&#10;  A 1.12 1.12 0.0 0 1 303.59 74.91&#10;  L 281.81 74.99&#10;  Q 280.40 74.99 280.61 76.38&#10;  Z"/>
<path fill="#311807" d="&#10;  M 434.75 90.48&#10;  C 434.85 96.74 430.64 103.08 423.81 103.14&#10;  Q 415.41 103.21 406.21 103.24&#10;  C 389.21 103.30 389.81 78.56 405.72 78.20&#10;  Q 413.04 78.03 421.23 78.11&#10;  Q 422.55 78.12 422.55 79.44&#10;  L 422.53 85.72&#10;  Q 422.53 86.97 421.28 86.97&#10;  L 406.30 86.98&#10;  Q 402.52 86.99 402.22 90.76&#10;  Q 402.12 91.94 402.78 93.14&#10;  A 3.08 3.07 -14.0 0 0 405.42 94.72&#10;  Q 414.47 94.89 422.09 94.65&#10;  C 426.42 94.51 426.19 91.39 426.21 87.67&#10;  Q 426.22 82.79 426.15 78.39&#10;  Q 426.09 74.29 421.98 74.29&#10;  L 403.24 74.29&#10;  A 0.79 0.79 0.0 0 1 402.45 73.49&#10;  L 402.48 66.50&#10;  Q 402.48 65.78 403.19 65.78&#10;  Q 412.15 65.72 421.53 65.71&#10;  Q 429.92 65.69 433.20 71.76&#10;  Q 434.81 74.75 434.75 78.43&#10;  Q 434.65 84.52 434.75 90.48&#10;  Z"/>
<path fill="#311807" d="&#10;  M 450.32 76.02&#10;  L 450.41 76.62&#10;  Q 450.60 77.96 451.96 77.98&#10;  Q 458.37 78.08 465.73 77.96&#10;  C 475.18 77.81 481.49 86.52 478.10 95.39&#10;  C 475.78 101.45 470.54 103.42 464.50 103.35&#10;  Q 452.82 103.22 442.27 103.17&#10;  A 0.61 0.61 0.0 0 1 441.66 102.56&#10;  L 441.70 94.85&#10;  Q 441.70 94.15 442.40 94.15&#10;  L 466.59 94.10&#10;  Q 470.03 94.09 469.79 90.66&#10;  L 469.74 89.91&#10;  Q 469.56 87.23 466.88 87.14&#10;  Q 461.18 86.93 455.51 87.02&#10;  Q 449.35 87.12 447.02 85.90&#10;  C 439.35 81.90 439.29 69.88 447.48 66.69&#10;  Q 450.36 65.57 455.73 65.65&#10;  Q 465.33 65.79 473.53 65.65&#10;  Q 474.61 65.64 474.60 66.72&#10;  L 474.50 74.04&#10;  Q 474.49 74.95 473.62 74.95&#10;  L 451.21 74.98&#10;  A 0.91 0.90 85.9 0 0 450.32 76.02&#10;  Z"/>
<path fill="#311807" d="&#10;  M 493.15 76.31&#10;  L 493.16 76.70&#10;  Q 493.21 77.93 494.45 77.96&#10;  Q 500.90 78.10 507.92 77.95&#10;  C 514.78 77.81 520.33 81.33 521.56 88.26&#10;  C 522.58 93.95 519.92 100.01 514.42 102.13&#10;  Q 511.18 103.37 507.54 103.34&#10;  Q 496.14 103.21 485.33 103.18&#10;  Q 484.45 103.18 484.45 102.30&#10;  L 484.42 95.22&#10;  A 1.11 1.11 0.0 0 1 485.53 94.10&#10;  L 509.13 94.09&#10;  Q 512.50 94.09 512.67 90.73&#10;  Q 512.69 90.23 512.56 89.73&#10;  Q 511.91 87.28 509.37 87.12&#10;  Q 503.93 86.80 497.23 87.02&#10;  Q 491.62 87.20 489.26 85.68&#10;  C 485.56 83.28 483.62 79.31 484.20 75.00&#10;  Q 485.42 66.05 495.00 65.74&#10;  Q 499.37 65.60 516.47 65.77&#10;  Q 517.20 65.78 517.20 66.51&#10;  L 517.21 74.05&#10;  A 0.89 0.88 -0.0 0 1 516.32 74.93&#10;  L 494.44 74.96&#10;  A 1.29 1.29 0.0 0 0 493.15 76.31&#10;  Z"/>
<path fill="#311807" d="&#10;  M 143.99 166.04&#10;  A 2.05 2.05 0.0 0 1 141.94 168.12&#10;  L 84.46 168.13&#10;  A 2.39 2.38 -1.9 0 1 82.08 165.91&#10;  Q 81.96 163.95 83.29 161.77&#10;  Q 98.11 137.50 111.53 115.33&#10;  A 1.85 1.85 0.0 0 1 114.44 115.00&#10;  Q 115.75 116.35 116.56 117.72&#10;  Q 129.59 139.66 141.75 160.30&#10;  C 142.82 162.11 143.97 164.05 143.99 166.04&#10;  Z"/>
</svg>