<svg xmlns="http://www.w3.org/2000/svg" width="32" height="32" viewBox="0 0 32 32" fill="none">
  <mask id="mask0_3776_6155" style="mask-type:luminance" maskUnits="userSpaceOnUse" x="0" y="0" width="32" height="32">
    <path d="M32 0H0V32H32V0Z" fill="white"/>
  </mask>
  <g mask="url(#mask0_3776_6155)">
    <path d="M12.6674 25.3334C11.8615 25.3334 9.35056 25.3334 7.49026 25.3334C6.49907 25.3334 5.85562 24.2903 6.29888 23.4038L7.43768 21.1262C7.80796 20.3857 8.00074 19.5699 8.00074 18.7419C8.00074 17.7157 8.00074 16.1913 8.00074 14.6667C8.00074 12.0001 9.33407 6.66675 16.0007 6.66675C22.6674 6.66675 24.0007 12.0001 24.0007 14.6667C24.0007 16.1913 24.0007 17.7157 24.0007 18.7419C24.0007 19.5699 24.1935 20.3857 24.5638 21.1262L25.7026 23.4038C26.1458 24.2903 25.5011 25.3334 24.5101 25.3334H19.3341M12.6674 25.3334C12.6674 28.0001 14.0007 29.3334 16.0007 29.3334C18.0007 29.3334 19.3341 28.0001 19.3341 25.3334M12.6674 25.3334C14.7502 25.3334 19.3341 25.3334 19.3341 25.3334" stroke="black" stroke-width="1.5" stroke-linejoin="round"/>
    <path d="M16 6.66667V4" stroke="black" stroke-width="1.5" stroke-linecap="round" stroke-linejoin="round"/>
  </g>
</svg>